<svg width="24" height="16" viewBox="0 0 24 16" fill="none" xmlns="http://www.w3.org/2000/svg">
<path d="M13.8326 3.68002C14.4293 3.64418 15.0429 3.66726 15.6414 3.66762L16.6912 3.66854C18.4741 3.6717 19.1602 4.15478 19.7846 5.4703L20.1486 6.2583C20.4093 6.83978 20.5184 7.03954 21.16 7.4021L21.9395 7.82418C23.2844 8.54246 23.2955 9.01186 23.294 10.2956L23.2926 10.8087C23.2881 11.7273 22.3956 12.4974 21.2916 12.6301C21.2608 12.8441 21.2202 13.0625 21.1359 13.2675C20.273 15.3667 16.3511 14.9467 16.2372 12.6124C16.0591 12.5921 15.8776 12.5972 15.6982 12.5969L12.3822 12.5965C12.405 12.5237 12.4097 12.4439 12.421 12.3716L13.5443 5.1567L13.8326 3.68002ZM16.0194 5.29566C15.7655 5.3695 15.5068 5.52242 15.3868 5.72526L15.3676 5.7577C15.2246 5.99774 15.3009 6.58111 15.3007 6.85779L15.3011 7.3879C15.3034 8.29338 15.9208 8.22434 16.8515 8.22538L18.5563 8.22842C19.3861 8.12326 19.2763 7.63622 19.0664 7.14042L18.8056 6.5265C18.6845 6.23214 18.6 5.90226 18.4247 5.62678C18.1358 5.1731 17.5528 5.2909 17.0278 5.29062C16.6951 5.29046 16.35 5.27406 16.0194 5.29566Z" fill="url(#paint0_linear_143_714)"/>
<path d="M3.02732 12.6149L3.0033 12.6138C2.66932 12.617 2.35129 12.5975 2.0401 12.4887L1.89478 12.4365C-0.00779313 11.6988 0.686102 9.92607 0.940929 8.60935L2.00782 2.47615C2.14038 1.87375 2.6929 1.32819 3.40766 1.13099L3.60909 1.07955C3.76003 1.04619 3.91631 1.03263 4.07205 1.02723L10.3822 1.0299C10.9183 1.03014 11.4516 1.01939 11.9849 1.06967C13.2547 1.18935 14.0255 2.16831 13.8424 3.17195C13.8125 3.33535 13.6419 3.62803 13.8326 3.68003L13.5443 5.15671L12.421 12.3716C12.4097 12.4439 12.405 12.5237 12.3822 12.5939L8.26287 12.5945L8.18632 12.9937C7.73999 14.3477 5.94948 15.0745 4.41909 14.403C4.36587 14.3797 4.30747 14.3574 4.2633 14.3232C4.21033 14.3159 4.10541 14.2418 4.06026 14.2132C3.40341 13.797 3.1291 13.271 3.02732 12.6149Z" fill="#A9D6E5"/>
<path d="M5.16417 7.46875L7.49656 7.46924C7.77797 7.46949 8.17827 7.41395 8.31842 7.80611C8.3504 7.89554 8.35877 8.02478 8.33118 8.11725L8.32079 8.15064C8.21531 8.48129 7.99691 8.533 7.74735 8.53333L7.34242 8.53226L4.85824 8.53272C4.5724 8.53305 4.19109 8.52279 4.17443 8.03161C4.15814 7.55093 4.53293 7.47237 4.83729 7.47023L5.16417 7.46875Z" fill="#FEFEFE"/>
<path d="M5.62783 5.33536L9.05233 5.33583C9.4655 5.33607 10.0532 5.28212 10.259 5.66312C10.306 5.75 10.3182 5.87555 10.2777 5.96539L10.2625 5.99783C10.1076 6.31907 9.78696 6.36931 9.42055 6.36963L8.82601 6.36859L5.17866 6.36903C4.75899 6.36935 4.19913 6.35939 4.17467 5.88219C4.15075 5.41519 4.70103 5.33887 5.1479 5.33679L5.62783 5.33536Z" fill="#FEFEFE"/>
<path d="M10.5573 3.21129L11.1921 3.20673C11.3066 3.20585 11.4469 3.19465 11.5582 3.21805C11.9178 3.29373 12.1512 3.63409 12.0394 3.92617L12.0312 3.94645C11.7522 4.65361 10.7554 4.27669 10.0965 4.26209L5.87474 4.25861L5.11106 4.25889C4.97582 4.25877 4.82825 4.26869 4.6953 4.24793C4.14855 4.16249 3.96009 3.53141 4.4815 3.29709L4.51814 3.28109C4.76989 3.15785 5.1723 3.21173 5.45345 3.21173L10.5573 3.21129Z" fill="#FEFEFE"/>
<path d="M3.02731 12.6149V12.5219C3.02829 11.3324 4.23698 10.3102 5.70555 10.3148C7.21559 10.3195 8.27309 11.404 8.26375 12.5937L8.18632 12.9937C7.73999 14.3477 5.94948 15.0745 4.41908 14.403C4.36587 14.3797 4.30747 14.3574 4.2633 14.3232C4.21032 14.3159 4.10541 14.2418 4.06026 14.2132C3.40341 13.797 3.1291 13.271 3.02731 12.6149Z" fill="url(#paint1_linear_143_714)"/>
<path d="M17.2174 13.0895V13.0347C17.218 12.3333 17.8923 11.7307 18.7117 11.7333C19.5543 11.7361 20.1443 12.3756 20.1391 13.077L20.0959 13.3128C19.8469 14.1111 18.8478 14.5396 17.994 14.1437C17.9643 14.13 17.9317 14.1168 17.907 14.0967C17.8775 14.0924 17.8189 14.0487 17.7937 14.0318C17.4273 13.7864 17.2742 13.4763 17.2174 13.0895Z" fill="white"/>
<path d="M4.17392 13.0895V13.0347C4.17447 12.3333 4.84886 11.7307 5.66826 11.7333C6.5108 11.7361 7.10084 12.3756 7.09562 13.077L7.05242 13.3128C6.80339 14.1111 5.80436 14.5396 4.95047 14.1437C4.92078 14.13 4.88819 14.1168 4.86355 14.0967C4.83399 14.0924 4.77545 14.0487 4.75026 14.0318C4.38376 13.7864 4.23071 13.4763 4.17392 13.0895Z" fill="white"/>
<defs>
<linearGradient id="paint0_linear_143_714" x1="17.8381" y1="3.65998" x2="17.8381" y2="14.6268" gradientUnits="userSpaceOnUse">
<stop stop-color="#008763"/>
<stop offset="1" stop-color="#002118"/>
</linearGradient>
<linearGradient id="paint1_linear_143_714" x1="5.64556" y1="10.3148" x2="5.64556" y2="14.6568" gradientUnits="userSpaceOnUse">
<stop stop-color="#008763"/>
<stop offset="1" stop-color="#002118"/>
</linearGradient>
</defs>
</svg>
