<svg width="24" height="19" viewBox="0 0 24 19" fill="none" xmlns="http://www.w3.org/2000/svg">
<g clip-path="url(#clip0_50_5480)">
<mask id="mask0_50_5480" style="mask-type:luminance" maskUnits="userSpaceOnUse" x="-26" y="0" width="50" height="19">
<path d="M-25.1707 0H24V19H-25.1707V0Z" fill="white"/>
</mask>
<g mask="url(#mask0_50_5480)">
<mask id="mask1_50_5480" style="mask-type:luminance" maskUnits="userSpaceOnUse" x="-26" y="0" width="50" height="19">
<path d="M-25.1707 0H24V19H-25.1707V0Z" fill="white"/>
</mask>
<g mask="url(#mask1_50_5480)">
<path d="M9.95123 3.04H15.8517V12.16H9.95123V3.04Z" fill="url(#paint0_linear_50_5480)"/>
<path d="M3.56725 0.586044L3.28928 1.69179C3.2811 1.71391 3.27293 1.73602 3.25658 1.73602L2.43897 2.11198C2.38991 2.13409 2.38991 2.23361 2.43897 2.25572L3.25658 2.63167C3.27293 2.64273 3.28928 2.65379 3.28928 2.67591L3.56725 3.78165C3.5836 3.84799 3.65719 3.84799 3.67354 3.78165L3.95151 2.67591C3.95969 2.65379 3.96786 2.63167 3.98422 2.63167L4.80183 2.25572C4.85089 2.23361 4.85089 2.13409 4.80183 2.11198L3.98422 1.73602C3.96786 1.72496 3.95151 1.71391 3.95151 1.69179L3.67354 0.586044C3.65719 0.508641 3.5836 0.508641 3.56725 0.586044ZM2.01382 2.39947L1.78488 3.31724C1.7767 3.33935 1.76853 3.35041 1.75218 3.36147L1.07356 3.67108C1.03271 3.69319 1.03271 3.7706 1.07356 3.79271L1.75218 4.10233C1.76853 4.11339 1.7767 4.12444 1.78488 4.14656L2.01382 5.0643C2.03017 5.11959 2.08741 5.11959 2.10376 5.0643L2.33267 4.14656C2.34085 4.12444 2.34902 4.11339 2.36538 4.10233L3.04399 3.79271C3.08487 3.7706 3.08487 3.69319 3.04399 3.67108L2.36538 3.36147C2.34902 3.35041 2.34085 3.33935 2.33267 3.31724L2.10376 2.39947C2.08741 2.34418 2.03017 2.34418 2.01382 2.39947ZM1.49056 0.0331724L1.3025 0.78508C1.3025 0.796138 1.28615 0.807196 1.27797 0.81825L0.722007 1.07257C0.689301 1.08363 0.689301 1.14997 0.722007 1.17209L1.27797 1.42641C1.28615 1.42641 1.29433 1.44853 1.3025 1.45958L1.49056 2.21149C1.49874 2.25572 1.54779 2.25572 1.56415 2.21149L1.75218 1.45958C1.75218 1.44853 1.76853 1.43747 1.77671 1.42641L2.33267 1.17209C2.36538 1.16103 2.36538 1.09469 2.33267 1.07257L1.77671 0.81825C1.76853 0.81825 1.76035 0.796138 1.75218 0.78508L1.56415 0.0331724C1.54779 -0.0110575 1.49874 -0.0110575 1.49056 0.0331724Z" fill="#FFC107"/>
<path d="M4.98986 13.0257V9.66424C4.98986 8.63588 4.50749 7.8508 3.75529 7.6407C3.01129 7.43063 2.24274 7.92821 1.94842 8.80175C1.62136 9.7527 1.99747 10.9027 2.82323 11.2455C3.2402 11.4223 3.32196 11.6988 3.31379 12.2295C3.28926 13.6449 3.30561 15.0603 3.30561 16.4646C3.30561 17.2386 3.58361 17.6035 4.16411 17.5924C4.7119 17.5924 4.99804 17.2165 4.99804 16.4756C4.98986 15.3367 4.98986 14.1757 4.98986 13.0257ZM20.835 13.0478V16.4093C20.835 17.2386 21.0966 17.6035 21.6852 17.6035C22.2576 17.6035 22.5356 17.2165 22.5356 16.3872C22.5437 14.9055 22.5356 13.4127 22.5356 11.931C22.5356 11.6656 22.5437 11.4555 22.7972 11.356C23.8192 10.9137 24.2362 9.88536 23.8682 8.77963C23.5248 7.72916 22.4374 7.27582 21.628 7.8508C21.1047 8.22677 20.8268 8.82387 20.835 9.63106V13.0478ZM20.4016 13.855C20.4016 13.0146 20.1727 12.7382 19.535 12.7272H6.2735C5.63577 12.7272 5.39869 13.0367 5.43139 13.855H20.4016ZM22.2085 18.1674H21.2029C21.2846 18.4549 21.3092 18.7645 21.4318 18.8972C21.5299 19.0078 21.7997 19.0299 21.906 18.9193C22.0368 18.7977 22.0859 18.4991 22.2085 18.1674ZM4.65466 18.1674H3.68173C3.74714 18.4328 3.75532 18.7313 3.86976 18.8862C3.96787 19.0078 4.24587 19.041 4.34396 18.9414C4.47478 18.7977 4.52384 18.4991 4.65466 18.1674Z" fill="url(#paint1_linear_50_5480)"/>
<path d="M15.8313 12.1411C16.8451 12.1411 17.8589 12.1411 18.8727 12.1521C19.3796 12.1632 19.8866 12.2185 20.418 12.2627C20.418 11.4666 20.4343 10.593 20.418 9.70843C20.4016 8.62482 20.7614 7.86186 21.4482 7.33107C21.5544 7.25367 21.6526 7.02149 21.6689 6.84456C21.7016 6.46859 21.6853 6.08159 21.6771 5.69456C21.6362 4.23498 20.8595 3.02974 19.7803 3.02974C19.118 3.02974 17.6136 3.01868 15.8313 3.01868V12.1521" fill="url(#paint2_linear_50_5480)"/>
<path d="M9.96088 3.00762H6.33893C4.93265 3.01868 4.13142 4.12445 4.12325 6.03737C4.12325 6.20324 4.1396 6.36911 4.12325 6.53494C4.06601 6.99937 4.20498 7.24265 4.51568 7.47483C5.09618 7.91715 5.39868 8.63588 5.39868 9.56472V12.2848C5.85656 12.2406 6.26535 12.1632 6.68231 12.1632C7.77789 12.1521 8.87348 12.1521 9.96906 12.1521V3.00762" fill="url(#paint3_linear_50_5480)"/>
<path d="M5.45561 14.44H20.3473V17.1H5.45561V14.44Z" fill="url(#paint4_linear_50_5480)"/>
</g>
</g>
</g>
<defs>
<linearGradient id="paint0_linear_50_5480" x1="12.9015" y1="12.16" x2="12.9015" y2="3.04" gradientUnits="userSpaceOnUse">
<stop stop-color="#008763"/>
<stop offset="1" stop-color="#002118"/>
</linearGradient>
<linearGradient id="paint1_linear_50_5480" x1="12.9155" y1="19" x2="12.9155" y2="7.59278" gradientUnits="userSpaceOnUse">
<stop stop-color="#008763"/>
<stop offset="1" stop-color="#002118"/>
</linearGradient>
<linearGradient id="paint2_linear_50_5480" x1="18.7599" y1="12.2627" x2="18.7599" y2="3.01868" gradientUnits="userSpaceOnUse">
<stop stop-color="#008763"/>
<stop offset="1" stop-color="#002118"/>
</linearGradient>
<linearGradient id="paint3_linear_50_5480" x1="7.03985" y1="12.2848" x2="7.03985" y2="3.00762" gradientUnits="userSpaceOnUse">
<stop stop-color="#008763"/>
<stop offset="1" stop-color="#002118"/>
</linearGradient>
<linearGradient id="paint4_linear_50_5480" x1="12.9015" y1="17.1" x2="12.9015" y2="14.44" gradientUnits="userSpaceOnUse">
<stop stop-color="#008763"/>
<stop offset="1" stop-color="#002118"/>
</linearGradient>
<clipPath id="clip0_50_5480">
<rect width="24" height="19" fill="white" transform="matrix(-1 0 0 1 24 0)"/>
</clipPath>
</defs>
</svg>
